<?xml version="1.0" encoding="UTF-8" standalone="no"?>
<svg
   id="Capa_1"
   enable-background="new 0 0 512 512"
   height="610.75861"
   viewBox="0 0 1693.2415 610.75861"
   width="1693.2415"
   version="1.1"
   sodipodi:docname="logo.svg"
   inkscape:version="1.1 (c4e8f9ed74, 2021-05-24)"
   inkscape:export-filename="/home/lbignone/Development/new/galaxies_datasets/logo.png"
   inkscape:export-xdpi="58"
   inkscape:export-ydpi="58"
   xmlns:inkscape="http://www.inkscape.org/namespaces/inkscape"
   xmlns:sodipodi="http://sodipodi.sourceforge.net/DTD/sodipodi-0.dtd"
   xmlns="http://www.w3.org/2000/svg"
   xmlns:svg="http://www.w3.org/2000/svg">
  <defs
     id="defs41">
    <rect
       x="487.12404"
       y="226.82844"
       width="1030.399"
       height="137.0909"
       id="rect7172" />
  </defs>
  <sodipodi:namedview
     id="namedview39"
     pagecolor="#ffffff"
     bordercolor="#666666"
     borderopacity="1.0"
     inkscape:pageshadow="2"
     inkscape:pageopacity="0.0"
     inkscape:pagecheckerboard="0"
     showgrid="false"
     fit-margin-top="0"
     fit-margin-left="0"
     fit-margin-right="0"
     fit-margin-bottom="0"
     inkscape:zoom="0.82324219"
     inkscape:cx="744.61684"
     inkscape:cy="332.83037"
     inkscape:window-width="1920"
     inkscape:window-height="1027"
     inkscape:window-x="0"
     inkscape:window-y="0"
     inkscape:window-maximized="1"
     inkscape:current-layer="layer2" />
  <g
     inkscape:groupmode="layer"
     id="layer2"
     inkscape:label="Layer 2"
     style="display:inline"
     transform="translate(590.62073,49.379303)">
    <g
       id="g63664"
       transform="translate(-23.761775)">
      <g
         id="g36"
         transform="matrix(0.47506052,0,0,0.47506052,-395.20714,134.80709)">
        <path
           d="m 197.884,208.706 c -3.456,-2.283 -8.108,-1.332 -10.392,2.124 -8.859,13.413 -13.542,29.033 -13.542,45.17 0,45.242 36.808,82.05 82.05,82.05 45.242,0 82.05,-36.808 82.05,-82.05 0,-45.242 -36.808,-82.05 -82.05,-82.05 -16.138,0 -31.757,4.683 -45.169,13.542 -3.456,2.283 -4.407,6.936 -2.124,10.392 2.283,3.456 6.935,4.407 10.392,2.124 10.952,-7.234 23.712,-11.058 36.901,-11.058 36.971,0 67.05,30.078 67.05,67.05 0,36.972 -30.079,67.05 -67.05,67.05 -36.971,0 -67.05,-30.078 -67.05,-67.05 0,-13.189 3.824,-25.949 11.059,-36.902 2.283,-3.457 1.331,-8.11 -2.125,-10.392 z"
           id="path4" />
        <path
           d="m 273.184,461.594 c 4.128,-0.341 7.198,-3.964 6.857,-8.092 -0.341,-4.128 -3.979,-7.21 -8.092,-6.858 -5.264,0.435 -10.63,0.655 -15.95,0.655 -105.483,0 -191.3,-85.816 -191.3,-191.3 0,-33.634 8.849,-66.708 25.589,-95.645 2.074,-3.586 0.849,-8.174 -2.737,-10.248 -3.584,-2.072 -8.173,-0.849 -10.247,2.736 C 59.246,184.061 49.7,219.732 49.7,256 c 0,113.754 92.546,206.3 206.3,206.3 5.73,0 11.512,-0.238 17.184,-0.706 z"
           id="path6" />
        <path
           d="m 187.232,61.441 c -3.905,1.381 -5.952,5.665 -4.572,9.57 1.38,3.905 5.662,5.95 9.571,4.572 C 212.664,68.362 234.118,64.7 256,64.7 c 105.483,0 191.3,85.816 191.3,191.3 0,36.062 -10.003,70.934 -28.981,101.276 -2.267,-0.709 -4.677,-1.092 -7.174,-1.092 -13.271,0 -24.067,10.796 -24.067,24.066 0,4.36 1.172,8.45 3.208,11.981 -15.924,15.713 -34.251,28.396 -54.579,37.726 -3.765,1.728 -5.416,6.181 -3.688,9.945 1.263,2.751 3.98,4.373 6.821,4.373 1.046,0 2.11,-0.221 3.124,-0.686 22.197,-10.188 42.183,-24.077 59.499,-41.314 2.965,1.308 6.239,2.041 9.682,2.041 13.271,0 24.066,-10.796 24.066,-24.066 0,-5.322 -1.739,-10.243 -4.674,-14.232 C 451.331,333.104 462.3,295.202 462.3,256 462.3,142.246 369.754,49.7 256,49.7 c -23.589,0 -46.726,3.95 -68.768,11.741 z m 223.913,327.875 c -5,0 -9.067,-4.067 -9.067,-9.066 0,-4.999 4.067,-9.066 9.067,-9.066 4.999,0 9.066,4.067 9.066,9.066 0,4.999 -4.067,9.066 -9.066,9.066 z"
           id="path8" />
        <path
           d="m 7.5,263.5 c 4.142,0 7.5,-3.357 7.5,-7.5 0,-61.486 22.926,-119.54 64.698,-164.3 5.325,3.853 11.859,6.133 18.919,6.133 17.838,0 32.35,-14.512 32.35,-32.35 0,-4.882 -1.093,-9.511 -3.038,-13.665 C 166.268,27.713 210.387,15 256,15 c 4.142,0 7.5,-3.357 7.5,-7.5 0,-4.143 -3.358,-7.5 -7.5,-7.5 -49.014,0 -96.41,13.821 -137.472,40.016 -5.495,-4.305 -12.406,-6.882 -19.912,-6.882 -17.838,0 -32.35,14.512 -32.35,32.35 0,5.322 1.3,10.344 3.587,14.777 C 24.762,127.966 0,190.133 0,256 c 0,4.143 3.358,7.5 7.5,7.5 z M 98.617,48.134 c 9.567,0 17.35,7.783 17.35,17.35 0,9.567 -7.783,17.35 -17.35,17.35 -9.567,0 -17.35,-7.783 -17.35,-17.35 0,-9.567 7.783,-17.35 17.35,-17.35 z"
           id="path10" />
        <path
           d="m 504.5,248.5 c -4.142,0 -7.5,3.357 -7.5,7.5 0,132.888 -108.112,241 -241,241 -4.142,0 -7.5,3.357 -7.5,7.5 0,4.143 3.358,7.5 7.5,7.5 68.38,0 132.668,-26.629 181.02,-74.98 C 485.372,388.668 512,324.38 512,256 c 0,-4.143 -3.358,-7.5 -7.5,-7.5 z"
           id="path12" />
        <path
           d="m 359.452,140.816 c -6.285,0 -12.153,1.808 -17.123,4.922 -24.561,-19.24 -54.98,-29.771 -86.329,-29.771 -68.502,0 -126.825,49.724 -138.078,116.619 C 107.317,235.097 99.4,244.638 99.4,256 c 0,11.362 7.916,20.903 18.521,23.414 11.253,66.896 69.576,116.619 138.079,116.619 32.032,0 62.179,-10.527 87.183,-30.443 3.24,-2.58 3.774,-7.299 1.193,-10.539 -2.581,-3.24 -7.298,-3.774 -10.539,-1.193 -22.32,17.778 -49.236,27.176 -77.837,27.176 -60.754,0 -112.537,-43.794 -123.077,-102.905 8.583,-3.681 14.611,-12.213 14.611,-22.128 0,-9.915 -6.028,-18.446 -14.61,-22.128 10.54,-59.111 62.324,-102.905 123.077,-102.905 27.422,0 54.042,9.029 75.73,25.546 -2.935,4.868 -4.628,10.567 -4.628,16.654 0,17.838 14.512,32.35 32.35,32.35 3.569,0 7,-0.589 10.213,-1.661 7.451,16.254 11.368,34.135 11.368,52.145 0,28.602 -9.397,55.517 -27.176,77.837 -2.581,3.24 -2.046,7.959 1.193,10.539 1.381,1.101 3.03,1.634 4.668,1.634 2.206,0 4.391,-0.968 5.871,-2.827 19.916,-25.004 30.443,-55.15 30.443,-87.183 0,-20.808 -4.682,-41.465 -13.557,-60.137 5.762,-5.844 9.326,-13.86 9.326,-22.696 0,-17.84 -14.512,-32.353 -32.35,-32.353 z M 123.467,246.934 c 4.999,0 9.066,4.067 9.066,9.066 0,4.999 -4.067,9.066 -9.066,9.066 -4.999,0 -9.067,-4.067 -9.067,-9.066 0,-4.999 4.067,-9.066 9.067,-9.066 z m 218.635,-73.767 c 0,-9.567 7.783,-17.351 17.35,-17.351 9.567,0 17.35,7.783 17.35,17.351 0,9.566 -7.783,17.35 -17.35,17.35 -9.567,0 -17.35,-7.784 -17.35,-17.35 z"
           id="path14" />
        <path
           d="m 355.4,31.566 h 9.067 v 9.067 c 0,4.143 3.358,7.5 7.5,7.5 4.142,0 7.5,-3.357 7.5,-7.5 v -9.067 h 9.066 c 4.142,0 7.5,-3.357 7.5,-7.5 0,-4.143 -3.358,-7.5 -7.5,-7.5 h -9.066 V 7.5 c 0,-4.143 -3.358,-7.5 -7.5,-7.5 -4.142,0 -7.5,3.357 -7.5,7.5 v 9.066 H 355.4 c -4.142,0 -7.5,3.357 -7.5,7.5 0,4.143 3.358,7.5 7.5,7.5 z"
           id="path16" />
        <path
           d="m 156.6,480.434 h -9.067 v -9.067 c 0,-4.143 -3.358,-7.5 -7.5,-7.5 -4.142,0 -7.5,3.357 -7.5,7.5 v 9.067 h -9.066 c -4.142,0 -7.5,3.357 -7.5,7.5 0,4.143 3.358,7.5 7.5,7.5 h 9.066 v 9.066 c 0,4.143 3.358,7.5 7.5,7.5 4.142,0 7.5,-3.357 7.5,-7.5 v -9.066 h 9.067 c 4.142,0 7.5,-3.357 7.5,-7.5 0,-4.143 -3.358,-7.5 -7.5,-7.5 z"
           id="path18" />
        <path
           d="m 48.917,381.033 c -4.142,0 -7.5,3.357 -7.5,7.5 V 405.1 c 0,4.143 3.358,7.5 7.5,7.5 4.142,0 7.5,-3.357 7.5,-7.5 v -16.566 c 0,-4.143 -3.358,-7.501 -7.5,-7.501 z"
           id="path20" />
        <path
           d="m 48.917,447.3 c -4.142,0 -7.5,3.357 -7.5,7.5 v 16.566 c 0,4.143 3.358,7.5 7.5,7.5 4.142,0 7.5,-3.357 7.5,-7.5 V 454.8 c 0,-4.143 -3.358,-7.5 -7.5,-7.5 z"
           id="path22" />
        <path
           d="M 90.334,422.45 H 73.767 c -4.142,0 -7.5,3.357 -7.5,7.5 0,4.143 3.358,7.5 7.5,7.5 h 16.567 c 4.142,0 7.5,-3.357 7.5,-7.5 0,-4.143 -3.358,-7.5 -7.5,-7.5 z"
           id="path24" />
        <path
           d="M 24.067,422.45 H 7.5 c -4.142,0 -7.5,3.357 -7.5,7.5 0,4.143 3.358,7.5 7.5,7.5 h 16.567 c 4.142,0 7.5,-3.357 7.5,-7.5 0,-4.143 -3.358,-7.5 -7.5,-7.5 z"
           id="path26" />
        <path
           d="m 463.083,64.7 c 4.142,0 7.5,-3.357 7.5,-7.5 V 40.634 c 0,-4.143 -3.358,-7.5 -7.5,-7.5 -4.142,0 -7.5,3.357 -7.5,7.5 V 57.2 c 0,4.143 3.358,7.5 7.5,7.5 z"
           id="path28" />
        <path
           d="m 463.083,130.967 c 4.142,0 7.5,-3.357 7.5,-7.5 V 106.9 c 0,-4.143 -3.358,-7.5 -7.5,-7.5 -4.142,0 -7.5,3.357 -7.5,7.5 v 16.566 c 0,4.143 3.358,7.501 7.5,7.501 z"
           id="path30" />
        <path
           d="M 487.933,89.55 H 504.5 c 4.142,0 7.5,-3.357 7.5,-7.5 0,-4.143 -3.358,-7.5 -7.5,-7.5 h -16.567 c -4.142,0 -7.5,3.357 -7.5,7.5 0,4.142 3.358,7.5 7.5,7.5 z"
           id="path32" />
        <path
           d="m 421.667,89.55 h 16.567 c 4.142,0 7.5,-3.357 7.5,-7.5 0,-4.143 -3.358,-7.5 -7.5,-7.5 h -16.567 c -4.142,0 -7.5,3.357 -7.5,7.5 0,4.142 3.357,7.5 7.5,7.5 z"
           id="path34" />
      </g>
      <text
         xml:space="preserve"
         transform="translate(-551.28458,-28.427832)"
         id="text7170"
         style="font-style:normal;font-variant:normal;font-weight:normal;font-stretch:normal;font-size:113.333px;line-height:1.25;font-family:sans-serif;-inkscape-font-specification:sans-serif;white-space:pre;shape-inside:url(#rect7172);fill:#000000;fill-opacity:1;stroke:none"><tspan
           x="487.125"
           y="327.10127"
           id="tspan63742">Galaxies Datasets</tspan></text>
    </g>
  </g>
</svg>
